<svg width="25" height="24" viewBox="0 0 25 24" fill="none" xmlns="http://www.w3.org/2000/svg">
<path d="M23 19.501H21.5V9.00098C21.5 8.60315 21.342 8.22162 21.0607 7.94032C20.7794 7.65901 20.3978 7.50098 20 7.50098H14V3.00098C14.0002 2.72935 13.9266 2.46277 13.7871 2.22969C13.6476 1.99662 13.4474 1.8058 13.208 1.67759C12.9685 1.54939 12.6987 1.48861 12.4274 1.50176C12.1561 1.5149 11.8935 1.60147 11.6675 1.75223L4.1675 6.75098C3.96176 6.88824 3.79315 7.07426 3.67669 7.29246C3.56023 7.51066 3.49953 7.75427 3.5 8.0016V19.501H2C1.80109 19.501 1.61032 19.58 1.46967 19.7206C1.32902 19.8613 1.25 20.0521 1.25 20.251C1.25 20.4499 1.32902 20.6407 1.46967 20.7813C1.61032 20.922 1.80109 21.001 2 21.001H23C23.1989 21.001 23.3897 20.922 23.5303 20.7813C23.671 20.6407 23.75 20.4499 23.75 20.251C23.75 20.0521 23.671 19.8613 23.5303 19.7206C23.3897 19.58 23.1989 19.501 23 19.501ZM20 9.00098V19.501H14V9.00098H20ZM5 8.0016L12.5 3.00098V19.501H5V8.0016ZM11 10.501V12.001C11 12.1999 10.921 12.3907 10.7803 12.5313C10.6397 12.672 10.4489 12.751 10.25 12.751C10.0511 12.751 9.86032 12.672 9.71967 12.5313C9.57902 12.3907 9.5 12.1999 9.5 12.001V10.501C9.5 10.3021 9.57902 10.1113 9.71967 9.97065C9.86032 9.82999 10.0511 9.75098 10.25 9.75098C10.4489 9.75098 10.6397 9.82999 10.7803 9.97065C10.921 10.1113 11 10.3021 11 10.501ZM8 10.501V12.001C8 12.1999 7.92098 12.3907 7.78033 12.5313C7.63968 12.672 7.44891 12.751 7.25 12.751C7.05109 12.751 6.86032 12.672 6.71967 12.5313C6.57902 12.3907 6.5 12.1999 6.5 12.001V10.501C6.5 10.3021 6.57902 10.1113 6.71967 9.97065C6.86032 9.82999 7.05109 9.75098 7.25 9.75098C7.44891 9.75098 7.63968 9.82999 7.78033 9.97065C7.92098 10.1113 8 10.3021 8 10.501ZM8 15.751V17.251C8 17.4499 7.92098 17.6407 7.78033 17.7813C7.63968 17.922 7.44891 18.001 7.25 18.001C7.05109 18.001 6.86032 17.922 6.71967 17.7813C6.57902 17.6407 6.5 17.4499 6.5 17.251V15.751C6.5 15.5521 6.57902 15.3613 6.71967 15.2206C6.86032 15.08 7.05109 15.001 7.25 15.001C7.44891 15.001 7.63968 15.08 7.78033 15.2206C7.92098 15.3613 8 15.5521 8 15.751ZM11 15.751V17.251C11 17.4499 10.921 17.6407 10.7803 17.7813C10.6397 17.922 10.4489 18.001 10.25 18.001C10.0511 18.001 9.86032 17.922 9.71967 17.7813C9.57902 17.6407 9.5 17.4499 9.5 17.251V15.751C9.5 15.5521 9.57902 15.3613 9.71967 15.2206C9.86032 15.08 10.0511 15.001 10.25 15.001C10.4489 15.001 10.6397 15.08 10.7803 15.2206C10.921 15.3613 11 15.5521 11 15.751Z" fill="white"/>
</svg>
