<svg width="12" height="13" viewBox="0 0 12 13" fill="none" xmlns="http://www.w3.org/2000/svg">
<path d="M10.875 10.25C10.875 10.3495 10.8355 10.4448 10.7652 10.5152C10.6948 10.5855 10.5995 10.625 10.5 10.625H1.5C1.40054 10.625 1.30516 10.5855 1.23483 10.5152C1.16451 10.4448 1.125 10.3495 1.125 10.25V2.75C1.125 2.65054 1.16451 2.55516 1.23483 2.48484C1.30516 2.41451 1.40054 2.375 1.5 2.375C1.59946 2.375 1.69484 2.41451 1.76517 2.48484C1.83549 2.55516 1.875 2.65054 1.875 2.75V7.17359L4.25297 5.09375C4.31768 5.03711 4.39989 5.00442 4.48583 5.00118C4.57177 4.99794 4.65621 5.02433 4.725 5.07594L7.48172 7.14359L10.253 4.71875C10.2893 4.68278 10.3326 4.65462 10.3802 4.63601C10.4278 4.61739 10.4788 4.6087 10.5299 4.61049C10.581 4.61227 10.6311 4.62448 10.6774 4.64637C10.7236 4.66827 10.7648 4.69937 10.7985 4.73779C10.8323 4.7762 10.8578 4.82111 10.8736 4.86975C10.8893 4.91839 10.8949 4.96974 10.8901 5.02064C10.8853 5.07154 10.8701 5.12091 10.8455 5.16573C10.8209 5.21055 10.7874 5.24986 10.747 5.28125L7.74703 7.90625C7.68232 7.96289 7.60011 7.99558 7.51417 7.99882C7.42824 8.00206 7.34379 7.97567 7.275 7.92406L4.51828 5.85734L1.875 8.17016V9.875H10.5C10.5995 9.875 10.6948 9.91451 10.7652 9.98483C10.8355 10.0552 10.875 10.1505 10.875 10.25Z" fill="white"/>
</svg>
