<svg width="12" height="13" viewBox="0 0 12 13" fill="none" xmlns="http://www.w3.org/2000/svg">
<path d="M8.34375 2.375C7.37578 2.375 6.52828 2.79125 6 3.49484C5.47172 2.79125 4.62422 2.375 3.65625 2.375C2.88573 2.37587 2.14702 2.68234 1.60218 3.22718C1.05734 3.77202 0.750868 4.51073 0.75 5.28125C0.75 8.5625 5.61516 11.2184 5.82234 11.3281C5.87695 11.3575 5.93799 11.3729 6 11.3729C6.06201 11.3729 6.12305 11.3575 6.17766 11.3281C6.38484 11.2184 11.25 8.5625 11.25 5.28125C11.2491 4.51073 10.9427 3.77202 10.3978 3.22718C9.85298 2.68234 9.11427 2.37587 8.34375 2.375ZM6 10.5688C5.14406 10.07 1.5 7.79797 1.5 5.28125C1.50074 4.70961 1.72816 4.16159 2.13237 3.75737C2.53659 3.35316 3.08461 3.12574 3.65625 3.125C4.56797 3.125 5.33344 3.61063 5.65312 4.39062C5.68138 4.4594 5.72944 4.51823 5.7912 4.55963C5.85297 4.60103 5.92564 4.62314 6 4.62314C6.07436 4.62314 6.14703 4.60103 6.2088 4.55963C6.27056 4.51823 6.31862 4.4594 6.34687 4.39062C6.66656 3.60922 7.43203 3.125 8.34375 3.125C8.91539 3.12574 9.46341 3.35316 9.86763 3.75737C10.2718 4.16159 10.4993 4.70961 10.5 5.28125C10.5 7.79422 6.855 10.0695 6 10.5688Z" fill="white"/>
</svg>
