<svg width="16" height="16" viewBox="0 0 16 16" fill="none" xmlns="http://www.w3.org/2000/svg">
<path d="M13.7069 6.79248L8.70688 1.79248C8.51936 1.60508 8.26511 1.49982 8.00001 1.49982C7.7349 1.49982 7.48065 1.60508 7.29313 1.79248L2.29313 6.79248C2.19982 6.8851 2.12586 6.99534 2.07553 7.1168C2.02521 7.23826 1.99954 7.36851 2.00001 7.49998V13.5C2.00001 13.6326 2.05268 13.7598 2.14645 13.8535C2.24022 13.9473 2.3674 14 2.50001 14H6.50001C6.63261 14 6.75979 13.9473 6.85356 13.8535C6.94733 13.7598 7.00001 13.6326 7.00001 13.5V9.99998H9.00001V13.5C9.00001 13.6326 9.05268 13.7598 9.14645 13.8535C9.24022 13.9473 9.3674 14 9.50001 14H13.5C13.6326 14 13.7598 13.9473 13.8536 13.8535C13.9473 13.7598 14 13.6326 14 13.5V7.49998C14.0005 7.36851 13.9748 7.23826 13.9245 7.1168C13.8742 6.99534 13.8002 6.8851 13.7069 6.79248ZM13 13H10V9.49998C10 9.36737 9.94733 9.24019 9.85356 9.14642C9.75979 9.05266 9.63261 8.99998 9.50001 8.99998H6.50001C6.3674 8.99998 6.24022 9.05266 6.14645 9.14642C6.05268 9.24019 6.00001 9.36737 6.00001 9.49998V13H3.00001V7.49998L8.00001 2.49998L13 7.49998V13Z" fill="#5A646C"/>
</svg>
