<svg width="16" height="16" viewBox="0 0 16 16" fill="none" xmlns="http://www.w3.org/2000/svg">
<path d="M13.9999 7.99997C13.9999 8.13258 13.9472 8.25976 13.8535 8.35353C13.7597 8.4473 13.6325 8.49997 13.4999 8.49997H6.9999C6.8673 8.49997 6.74012 8.4473 6.64635 8.35353C6.55258 8.25976 6.4999 8.13258 6.4999 7.99997C6.4999 7.86737 6.55258 7.74019 6.64635 7.64642C6.74012 7.55265 6.8673 7.49997 6.9999 7.49997H13.4999C13.6325 7.49997 13.7597 7.55265 13.8535 7.64642C13.9472 7.74019 13.9999 7.86737 13.9999 7.99997ZM6.9999 4.49997H13.4999C13.6325 4.49997 13.7597 4.44729 13.8535 4.35353C13.9472 4.25976 13.9999 4.13258 13.9999 3.99997C13.9999 3.86736 13.9472 3.74019 13.8535 3.64642C13.7597 3.55265 13.6325 3.49997 13.4999 3.49997H6.9999C6.8673 3.49997 6.74012 3.55265 6.64635 3.64642C6.55258 3.74019 6.4999 3.86736 6.4999 3.99997C6.4999 4.13258 6.55258 4.25976 6.64635 4.35353C6.74012 4.44729 6.8673 4.49997 6.9999 4.49997ZM13.4999 11.5H2.4999C2.3673 11.5 2.24012 11.5527 2.14635 11.6464C2.05258 11.7402 1.9999 11.8674 1.9999 12C1.9999 12.1326 2.05258 12.2598 2.14635 12.3535C2.24012 12.4473 2.3673 12.5 2.4999 12.5H13.4999C13.6325 12.5 13.7597 12.4473 13.8535 12.3535C13.9472 12.2598 13.9999 12.1326 13.9999 12C13.9999 11.8674 13.9472 11.7402 13.8535 11.6464C13.7597 11.5527 13.6325 11.5 13.4999 11.5ZM2.14615 8.85372C2.19259 8.90021 2.24774 8.93709 2.30843 8.96225C2.36913 8.98742 2.4342 9.00037 2.4999 9.00037C2.56561 9.00037 2.63068 8.98742 2.69138 8.96225C2.75207 8.93709 2.80722 8.90021 2.85365 8.85372L5.35365 6.35372C5.40014 6.30729 5.43702 6.25214 5.46218 6.19144C5.48735 6.13074 5.5003 6.06568 5.5003 5.99997C5.5003 5.93427 5.48735 5.8692 5.46218 5.8085C5.43702 5.7478 5.40014 5.69266 5.35365 5.64622L2.85365 3.14622C2.75983 3.0524 2.63259 2.99969 2.4999 2.99969C2.36722 2.99969 2.23998 3.0524 2.14615 3.14622C2.05233 3.24004 1.99963 3.36729 1.99963 3.49997C1.99963 3.63265 2.05233 3.7599 2.14615 3.85372L4.29303 5.99997L2.14615 8.14622C2.09967 8.19266 2.06279 8.24781 2.03763 8.3085C2.01246 8.3692 1.99951 8.43427 1.99951 8.49997C1.99951 8.56568 2.01246 8.63075 2.03763 8.69144C2.06279 8.75214 2.09967 8.80729 2.14615 8.85372Z" fill="#1E1E1E"/>
</svg>
