<svg width="16" height="16" viewBox="0 0 16 16" fill="none" xmlns="http://www.w3.org/2000/svg">
<path d="M14.3535 12.3538L12.3535 14.3538C12.2597 14.4476 12.1325 14.5003 11.9998 14.5003C11.8671 14.5003 11.7399 14.4476 11.646 14.3538C11.5522 14.26 11.4995 14.1327 11.4995 14C11.4995 13.8673 11.5522 13.7401 11.646 13.6463L12.7929 12.5H4.99979C4.86718 12.5 4.74 12.4473 4.64624 12.3536C4.55247 12.2598 4.49979 12.1326 4.49979 12V3.7069L3.35354 4.85378C3.25972 4.9476 3.13247 5.00031 2.99979 5.00031C2.86711 5.00031 2.73986 4.9476 2.64604 4.85378C2.55222 4.75996 2.49951 4.63271 2.49951 4.50003C2.49951 4.36735 2.55222 4.2401 2.64604 4.14628L4.64604 2.14628C4.69248 2.09979 4.74762 2.06291 4.80832 2.03775C4.86902 2.01259 4.93408 1.99963 4.99979 1.99963C5.0655 1.99963 5.13056 2.01259 5.19126 2.03775C5.25196 2.06291 5.3071 2.09979 5.35354 2.14628L7.35354 4.14628C7.44736 4.2401 7.50007 4.36735 7.50007 4.50003C7.50007 4.63271 7.44736 4.75996 7.35354 4.85378C7.25972 4.9476 7.13247 5.00031 6.99979 5.00031C6.86711 5.00031 6.73986 4.9476 6.64604 4.85378L5.49979 3.7069V11.5H12.7929L11.646 10.3538C11.5522 10.26 11.4995 10.1327 11.4995 10C11.4995 9.86734 11.5522 9.7401 11.646 9.64628C11.7399 9.55246 11.8671 9.49975 11.9998 9.49975C12.1325 9.49975 12.2597 9.55246 12.3535 9.64628L14.3535 11.6463C14.4 11.6927 14.4369 11.7479 14.4621 11.8086C14.4872 11.8693 14.5002 11.9343 14.5002 12C14.5002 12.0657 14.4872 12.1308 14.4621 12.1915C14.4369 12.2522 14.4 12.3073 14.3535 12.3538Z" fill="#5A646C"/>
</svg>
